<?xml version="1.0" standalone="no"?><!DOCTYPE svg PUBLIC "-//W3C//DTD SVG 1.1//EN" "http://www.w3.org/Graphics/SVG/1.1/DTD/svg11.dtd"><svg t="1587542665083" class="icon" viewBox="0 0 1024 1024" version="1.1" xmlns="http://www.w3.org/2000/svg" p-id="2032" xmlns:xlink="http://www.w3.org/1999/xlink" width="200" height="200"><defs><style type="text/css"></style></defs><path d="M952.32 542.72c0 10.24-5.12 15.36-10.24 20.48l-250.88 250.88c-10.24 5.12-10.24 10.24-20.48 10.24s-15.36-5.12-20.48-10.24c-5.12-5.12-10.24-10.24-10.24-20.48v-133.12H440.32c-10.24 0-15.36-5.12-20.48-10.24s-10.24-10.24-10.24-20.48V450.56c0-10.24 5.12-15.36 10.24-20.48s10.24-10.24 20.48-10.24h199.68V286.72c0-10.24 5.12-15.36 10.24-20.48s10.24-10.24 20.48-10.24 15.36 5.12 20.48 10.24l250.88 250.88c5.12 5.12 10.24 15.36 10.24 25.6z" p-id="2033" fill="#2c2c2c"></path><path d="M261.12 998.4c-51.2 0-102.4-15.36-133.12-56.32-35.84-35.84-56.32-81.92-56.32-133.12V266.24c0-51.2 20.48-102.4 56.32-133.12 35.84-35.84 81.92-61.44 133.12-61.44h158.72c35.84 0 61.44 25.6 61.44 61.44s-30.72 61.44-61.44 61.44H261.12c-35.84 0-71.68 35.84-71.68 71.68v537.6c0 35.84 35.84 71.68 71.68 71.68h158.72c35.84 0 61.44 25.6 61.44 61.44s-25.6 61.44-61.44 61.44H261.12z" p-id="2034" fill="#2c2c2c"></path></svg>